<mxfile host="app.diagrams.net" modified="2023-11-12T13:38:08.342Z" agent="Mozilla/5.0 (Windows NT 10.0; Win64; x64) AppleWebKit/537.36 (KHTML, like Gecko) Chrome/119.0.0.0 Safari/537.36" etag="6ebsg5Qw1UzktkkLK30U" version="22.1.0" type="device">
  <diagram name="Page-1" id="th54Ahr8eX0FZNg7mTy2">
    <mxGraphModel dx="1195" dy="640" grid="1" gridSize="10" guides="1" tooltips="1" connect="1" arrows="1" fold="1" page="1" pageScale="1" pageWidth="827" pageHeight="1169" math="0" shadow="0">
      <root>
        <mxCell id="0" />
        <mxCell id="1" parent="0" />
        <mxCell id="URHe9fdicr5Eil0lpXHR-6" style="edgeStyle=orthogonalEdgeStyle;rounded=0;orthogonalLoop=1;jettySize=auto;html=1;exitX=0.5;exitY=1;exitDx=0;exitDy=0;entryX=0.5;entryY=0;entryDx=0;entryDy=0;" edge="1" parent="1" source="URHe9fdicr5Eil0lpXHR-1" target="URHe9fdicr5Eil0lpXHR-4">
          <mxGeometry relative="1" as="geometry">
            <Array as="points">
              <mxPoint x="140" y="280" />
              <mxPoint x="520" y="280" />
            </Array>
          </mxGeometry>
        </mxCell>
        <mxCell id="URHe9fdicr5Eil0lpXHR-1" value="Video Provider" style="rounded=1;whiteSpace=wrap;html=1;" vertex="1" parent="1">
          <mxGeometry x="80" y="160" width="120" height="60" as="geometry" />
        </mxCell>
        <mxCell id="URHe9fdicr5Eil0lpXHR-7" style="edgeStyle=orthogonalEdgeStyle;rounded=0;orthogonalLoop=1;jettySize=auto;html=1;exitX=0.5;exitY=1;exitDx=0;exitDy=0;entryX=0.5;entryY=0;entryDx=0;entryDy=0;" edge="1" parent="1" source="URHe9fdicr5Eil0lpXHR-2" target="URHe9fdicr5Eil0lpXHR-4">
          <mxGeometry relative="1" as="geometry" />
        </mxCell>
        <mxCell id="URHe9fdicr5Eil0lpXHR-2" value="Audio Only Provider" style="rounded=1;whiteSpace=wrap;html=1;" vertex="1" parent="1">
          <mxGeometry x="510" y="160" width="120" height="60" as="geometry" />
        </mxCell>
        <mxCell id="URHe9fdicr5Eil0lpXHR-12" style="edgeStyle=orthogonalEdgeStyle;rounded=0;orthogonalLoop=1;jettySize=auto;html=1;exitX=0.5;exitY=1;exitDx=0;exitDy=0;entryX=0.5;entryY=0;entryDx=0;entryDy=0;" edge="1" parent="1" source="URHe9fdicr5Eil0lpXHR-3" target="URHe9fdicr5Eil0lpXHR-11">
          <mxGeometry relative="1" as="geometry" />
        </mxCell>
        <mxCell id="URHe9fdicr5Eil0lpXHR-3" value="Pier (database)" style="rounded=1;whiteSpace=wrap;html=1;" vertex="1" parent="1">
          <mxGeometry x="294" y="585" width="120" height="60" as="geometry" />
        </mxCell>
        <mxCell id="URHe9fdicr5Eil0lpXHR-10" style="edgeStyle=orthogonalEdgeStyle;rounded=0;orthogonalLoop=1;jettySize=auto;html=1;exitX=0.5;exitY=1;exitDx=0;exitDy=0;entryX=0.5;entryY=0;entryDx=0;entryDy=0;" edge="1" parent="1" source="URHe9fdicr5Eil0lpXHR-4" target="URHe9fdicr5Eil0lpXHR-3">
          <mxGeometry relative="1" as="geometry" />
        </mxCell>
        <mxCell id="URHe9fdicr5Eil0lpXHR-4" value="download_audio (Pier)" style="shape=parallelogram;perimeter=parallelogramPerimeter;whiteSpace=wrap;html=1;fixedSize=1;" vertex="1" parent="1">
          <mxGeometry x="460" y="380" width="120" height="60" as="geometry" />
        </mxCell>
        <mxCell id="URHe9fdicr5Eil0lpXHR-9" style="edgeStyle=orthogonalEdgeStyle;rounded=0;orthogonalLoop=1;jettySize=auto;html=1;exitX=0.5;exitY=1;exitDx=0;exitDy=0;entryX=0.5;entryY=0;entryDx=0;entryDy=0;" edge="1" parent="1" source="URHe9fdicr5Eil0lpXHR-5" target="URHe9fdicr5Eil0lpXHR-3">
          <mxGeometry relative="1" as="geometry" />
        </mxCell>
        <mxCell id="URHe9fdicr5Eil0lpXHR-5" value="download_video (Pier)" style="shape=parallelogram;perimeter=parallelogramPerimeter;whiteSpace=wrap;html=1;fixedSize=1;" vertex="1" parent="1">
          <mxGeometry x="174" y="380" width="120" height="60" as="geometry" />
        </mxCell>
        <mxCell id="URHe9fdicr5Eil0lpXHR-8" style="edgeStyle=orthogonalEdgeStyle;rounded=0;orthogonalLoop=1;jettySize=auto;html=1;exitX=0.5;exitY=1;exitDx=0;exitDy=0;entryX=0.563;entryY=0.028;entryDx=0;entryDy=0;entryPerimeter=0;" edge="1" parent="1" source="URHe9fdicr5Eil0lpXHR-1" target="URHe9fdicr5Eil0lpXHR-5">
          <mxGeometry relative="1" as="geometry" />
        </mxCell>
        <mxCell id="URHe9fdicr5Eil0lpXHR-11" value="Pier (media)" style="rounded=1;whiteSpace=wrap;html=1;" vertex="1" parent="1">
          <mxGeometry x="294" y="710" width="120" height="60" as="geometry" />
        </mxCell>
      </root>
    </mxGraphModel>
  </diagram>
</mxfile>
